<svg width="1400" height="360" viewBox="0 0 1400 360" fill="none" xmlns="http://www.w3.org/2000/svg" role="img" aria-labelledby="title desc">
  <title id="title">Harsh Wadari AI Engineer Banner</title>
  <desc id="desc">A premium dark technology banner for an AI engineer profile.</desc>
  <defs>
    <linearGradient id="bg" x1="0" y1="0" x2="1400" y2="360" gradientUnits="userSpaceOnUse">
      <stop offset="0" stop-color="#070B18"/>
      <stop offset="0.42" stop-color="#17113E"/>
      <stop offset="0.72" stop-color="#312E81"/>
      <stop offset="1" stop-color="#075985"/>
    </linearGradient>
    <linearGradient id="accent" x1="0" y1="0" x2="1" y2="1">
      <stop offset="0" stop-color="#A78BFA"/>
      <stop offset="0.5" stop-color="#60A5FA"/>
      <stop offset="1" stop-color="#22D3EE"/>
    </linearGradient>
    <filter id="softGlow" x="-40%" y="-40%" width="180%" height="180%">
      <feGaussianBlur stdDeviation="18" result="blur"/>
      <feColorMatrix in="blur" type="matrix" values="0 0 0 0 0.47 0 0 0 0 0.29 0 0 0 0 0.95 0 0 0 0.7 0"/>
      <feBlend in="SourceGraphic" mode="screen"/>
    </filter>
    <pattern id="grid" width="48" height="48" patternUnits="userSpaceOnUse">
      <path d="M48 0H0V48" stroke="#FFFFFF" stroke-opacity="0.08" stroke-width="1"/>
    </pattern>
  </defs>
  <rect width="1400" height="360" rx="28" fill="url(#bg)"/>
  <rect width="1400" height="360" rx="28" fill="url(#grid)"/>
  <path d="M-40 275C152 198 261 229 428 252C622 279 751 156 936 143C1130 130 1223 221 1450 128" stroke="url(#accent)" stroke-width="3" stroke-opacity="0.72"/>
  <path d="M-30 309C190 240 313 281 479 294C704 312 799 221 1018 214C1202 208 1298 260 1435 209" stroke="#C4B5FD" stroke-width="2" stroke-opacity="0.28"/>
  <g filter="url(#softGlow)">
    <circle cx="1088" cy="120" r="74" fill="#7C3AED" fill-opacity="0.32"/>
    <circle cx="1162" cy="204" r="46" fill="#38BDF8" fill-opacity="0.28"/>
  </g>
  <g transform="translate(92 72)">
    <rect x="0" y="0" width="520" height="216" rx="22" fill="#FFFFFF" fill-opacity="0.08" stroke="#FFFFFF" stroke-opacity="0.18"/>
    <text x="32" y="64" fill="#F8FAFC" font-family="Inter, Segoe UI, Arial, sans-serif" font-size="44" font-weight="800">AI Engineer</text>
    <text x="32" y="111" fill="#C4B5FD" font-family="Inter, Segoe UI, Arial, sans-serif" font-size="24" font-weight="700">Machine Learning Developer</text>
    <text x="32" y="149" fill="#DBEAFE" font-family="Inter, Segoe UI, Arial, sans-serif" font-size="20">Computer Vision | Generative AI | Full Stack</text>
    <text x="32" y="184" fill="#BAE6FD" font-family="Inter, Segoe UI, Arial, sans-serif" font-size="18">FastAPI - React - Docker - AWS - Research</text>
  </g>
  <g transform="translate(800 66)">
    <rect x="0" y="0" width="430" height="228" rx="24" fill="#020617" fill-opacity="0.46" stroke="#93C5FD" stroke-opacity="0.24"/>
    <path d="M71 114C71 64 112 23 162 23H268C318 23 359 64 359 114C359 164 318 205 268 205H162C112 205 71 164 71 114Z" stroke="url(#accent)" stroke-width="5"/>
    <path d="M162 72L111 114L162 156M268 72L319 114L268 156M233 63L197 165" stroke="#E0F2FE" stroke-width="9" stroke-linecap="round" stroke-linejoin="round"/>
    <circle cx="215" cy="114" r="94" stroke="#A78BFA" stroke-opacity="0.28" stroke-width="2" stroke-dasharray="8 10"/>
  </g>
</svg>
